<?xml version="1.0" encoding="UTF-8"?>
<svg xmlns="http://www.w3.org/2000/svg" version="1.1" width="300" height="300" viewBox="0 0 300 300"><rect x="0" y="0" width="300" height="300" fill="#ffffff"/><g transform="scale(9.091)"><g transform="translate(2,2)"><path fill-rule="evenodd" d="M8 0L8 1L10 1L10 0ZM14 0L14 2L11 2L11 4L10 4L10 3L9 3L9 2L8 2L8 5L9 5L9 6L8 6L8 7L9 7L9 8L8 8L8 9L9 9L9 10L6 10L6 9L7 9L7 8L6 8L6 9L4 9L4 8L0 8L0 9L3 9L3 10L1 10L1 11L0 11L0 12L1 12L1 11L2 11L2 12L3 12L3 11L4 11L4 10L6 10L6 11L7 11L7 12L5 12L5 13L2 13L2 15L1 15L1 16L0 16L0 17L1 17L1 18L0 18L0 19L1 19L1 18L2 18L2 17L3 17L3 18L4 18L4 17L5 17L5 19L4 19L4 20L3 20L3 19L2 19L2 20L1 20L1 21L2 21L2 20L3 20L3 21L5 21L5 20L6 20L6 21L7 21L7 20L9 20L9 19L10 19L10 23L11 23L11 24L9 24L9 25L8 25L8 29L12 29L12 28L10 28L10 27L11 27L11 26L12 26L12 27L15 27L15 28L16 28L16 29L21 29L21 28L20 28L20 27L19 27L19 26L17 26L17 25L16 25L16 27L15 27L15 26L13 26L13 25L11 25L11 24L12 24L12 23L13 23L13 24L14 24L14 25L15 25L15 24L16 24L16 23L17 23L17 22L18 22L18 24L19 24L19 21L20 21L20 26L22 26L22 29L25 29L25 28L26 28L26 29L28 29L28 27L29 27L29 25L28 25L28 24L29 24L29 23L28 23L28 21L29 21L29 19L28 19L28 21L27 21L27 22L26 22L26 21L25 21L25 20L27 20L27 19L26 19L26 18L27 18L27 17L26 17L26 16L25 16L25 17L26 17L26 18L25 18L25 19L24 19L24 15L25 15L25 14L26 14L26 15L29 15L29 14L26 14L26 13L25 13L25 11L26 11L26 10L25 10L25 9L27 9L27 11L28 11L28 9L29 9L29 8L28 8L28 9L27 9L27 8L24 8L24 9L23 9L23 11L24 11L24 13L23 13L23 14L22 14L22 13L21 13L21 12L22 12L22 11L21 11L21 12L20 12L20 11L19 11L19 10L20 10L20 9L21 9L21 10L22 10L22 8L21 8L21 6L20 6L20 5L21 5L21 3L20 3L20 4L19 4L19 3L17 3L17 2L19 2L19 1L20 1L20 0L19 0L19 1L17 1L17 2L16 2L16 3L15 3L15 4L13 4L13 3L14 3L14 2L15 2L15 0ZM12 4L12 5L10 5L10 6L9 6L9 7L10 7L10 8L9 8L9 9L10 9L10 10L9 10L9 12L8 12L8 13L5 13L5 14L8 14L8 13L9 13L9 12L10 12L10 13L11 13L11 16L12 16L12 14L14 14L14 12L16 12L16 11L17 11L17 13L16 13L16 14L15 14L15 15L16 15L16 16L14 16L14 15L13 15L13 17L12 17L12 18L11 18L11 17L10 17L10 15L8 15L8 16L9 16L9 18L8 18L8 17L6 17L6 18L8 18L8 19L9 19L9 18L10 18L10 19L12 19L12 18L13 18L13 17L14 17L14 18L15 18L15 17L16 17L16 16L18 16L18 15L19 15L19 16L20 16L20 17L18 17L18 18L17 18L17 19L19 19L19 20L20 20L20 18L21 18L21 19L22 19L22 20L24 20L24 19L23 19L23 18L22 18L22 17L23 17L23 15L24 15L24 14L25 14L25 13L24 13L24 14L23 14L23 15L21 15L21 16L20 16L20 15L19 15L19 13L20 13L20 12L19 12L19 11L18 11L18 10L19 10L19 8L18 8L18 9L15 9L15 11L14 11L14 12L13 12L13 10L14 10L14 9L13 9L13 10L12 10L12 12L11 12L11 9L12 9L12 8L14 8L14 6L15 6L15 7L16 7L16 5L17 5L17 7L18 7L18 5L17 5L17 4L16 4L16 5L13 5L13 4ZM12 5L12 7L13 7L13 5ZM10 6L10 7L11 7L11 6ZM19 6L19 7L20 7L20 6ZM18 12L18 13L19 13L19 12ZM28 12L28 13L29 13L29 12ZM0 13L0 14L1 14L1 13ZM17 14L17 15L18 15L18 14ZM4 15L4 16L3 16L3 17L4 17L4 16L7 16L7 15ZM21 16L21 17L22 17L22 16ZM28 17L28 18L29 18L29 17ZM6 19L6 20L7 20L7 19ZM13 19L13 21L12 21L12 20L11 20L11 22L13 22L13 23L16 23L16 22L17 22L17 21L18 21L18 20L16 20L16 19L15 19L15 20L14 20L14 19ZM15 20L15 21L13 21L13 22L15 22L15 21L16 21L16 20ZM8 21L8 22L9 22L9 21ZM21 21L21 24L24 24L24 21ZM22 22L22 23L23 23L23 22ZM25 23L25 25L24 25L24 27L25 27L25 25L26 25L26 26L27 26L27 27L26 27L26 28L27 28L27 27L28 27L28 26L27 26L27 23ZM22 25L22 26L23 26L23 25ZM17 27L17 28L18 28L18 27ZM0 0L0 7L7 7L7 0ZM1 1L1 6L6 6L6 1ZM2 2L2 5L5 5L5 2ZM22 0L22 7L29 7L29 0ZM23 1L23 6L28 6L28 1ZM24 2L24 5L27 5L27 2ZM0 22L0 29L7 29L7 22ZM1 23L1 28L6 28L6 23ZM2 24L2 27L5 27L5 24Z" fill="#000000"/></g></g></svg>
