<?xml version="1.0" encoding="UTF-8"?>
<svg xmlns="http://www.w3.org/2000/svg" version="1.1" width="300" height="300" viewBox="0 0 300 300"><rect x="0" y="0" width="300" height="300" fill="#ffffff"/><g transform="scale(8.108)"><g transform="translate(2,2)"><path fill-rule="evenodd" d="M10 0L10 1L8 1L8 3L9 3L9 4L8 4L8 8L6 8L6 9L7 9L7 10L6 10L6 11L3 11L3 10L4 10L4 8L3 8L3 9L2 9L2 8L0 8L0 11L1 11L1 10L2 10L2 13L1 13L1 12L0 12L0 14L1 14L1 16L3 16L3 15L5 15L5 16L6 16L6 17L4 17L4 18L5 18L5 19L3 19L3 20L2 20L2 21L1 21L1 22L0 22L0 23L1 23L1 24L0 24L0 25L1 25L1 24L4 24L4 25L7 25L7 24L8 24L8 23L9 23L9 20L11 20L11 19L12 19L12 20L13 20L13 19L14 19L14 20L16 20L16 21L15 21L15 22L17 22L17 23L19 23L19 24L22 24L22 23L23 23L23 24L24 24L24 27L22 27L22 26L23 26L23 25L22 25L22 26L21 26L21 29L20 29L20 27L19 27L19 26L20 26L20 25L19 25L19 26L18 26L18 25L17 25L17 26L16 26L16 25L15 25L15 26L16 26L16 27L13 27L13 24L12 24L12 25L11 25L11 24L9 24L9 25L8 25L8 27L10 27L10 29L8 29L8 30L9 30L9 31L8 31L8 33L9 33L9 31L11 31L11 32L10 32L10 33L13 33L13 32L14 32L14 33L18 33L18 32L19 32L19 31L18 31L18 29L17 29L17 28L19 28L19 29L20 29L20 30L21 30L21 29L22 29L22 30L23 30L23 29L22 29L22 28L24 28L24 32L22 32L22 31L21 31L21 32L20 32L20 33L26 33L26 32L25 32L25 31L26 31L26 30L28 30L28 31L27 31L27 33L28 33L28 31L30 31L30 30L31 30L31 31L33 31L33 28L32 28L32 26L31 26L31 24L32 24L32 25L33 25L33 24L32 24L32 23L33 23L33 22L32 22L32 21L31 21L31 20L32 20L32 19L33 19L33 17L31 17L31 16L33 16L33 15L32 15L32 14L31 14L31 13L30 13L30 12L28 12L28 14L27 14L27 15L29 15L29 13L30 13L30 15L31 15L31 16L29 16L29 19L28 19L28 18L27 18L27 17L28 17L28 16L26 16L26 13L27 13L27 12L26 12L26 11L25 11L25 10L26 10L26 9L29 9L29 8L26 8L26 9L25 9L25 10L24 10L24 11L23 11L23 10L22 10L22 11L21 11L21 10L19 10L19 12L17 12L17 11L18 11L18 8L19 8L19 6L20 6L20 7L21 7L21 8L20 8L20 9L21 9L21 8L23 8L23 9L24 9L24 8L25 8L25 2L24 2L24 1L25 1L25 0L23 0L23 1L22 1L22 0L21 0L21 2L23 2L23 3L24 3L24 4L23 4L23 5L24 5L24 8L23 8L23 6L22 6L22 7L21 7L21 5L22 5L22 3L21 3L21 4L19 4L19 3L20 3L20 2L17 2L17 3L16 3L16 4L15 4L15 2L16 2L16 1L15 1L15 0L14 0L14 5L13 5L13 3L12 3L12 7L11 7L11 4L10 4L10 3L9 3L9 2L11 2L11 0ZM16 4L16 6L15 6L15 5L14 5L14 6L13 6L13 7L12 7L12 8L15 8L15 9L13 9L13 10L15 10L15 11L14 11L14 13L13 13L13 12L12 12L12 16L11 16L11 13L10 13L10 12L8 12L8 11L11 11L11 8L10 8L10 5L9 5L9 8L8 8L8 10L7 10L7 11L6 11L6 12L8 12L8 14L10 14L10 15L6 15L6 14L7 14L7 13L5 13L5 12L4 12L4 13L3 13L3 14L5 14L5 15L6 15L6 16L7 16L7 17L6 17L6 18L8 18L8 20L7 20L7 19L5 19L5 20L3 20L3 21L2 21L2 22L3 22L3 21L6 21L6 22L7 22L7 23L4 23L4 24L7 24L7 23L8 23L8 22L7 22L7 21L8 21L8 20L9 20L9 19L11 19L11 18L12 18L12 16L13 16L13 17L14 17L14 18L15 18L15 19L17 19L17 18L18 18L18 19L19 19L19 21L17 21L17 22L21 22L21 23L22 23L22 22L21 22L21 21L23 21L23 23L24 23L24 24L26 24L26 23L28 23L28 22L29 22L29 23L30 23L30 24L29 24L29 25L30 25L30 24L31 24L31 23L32 23L32 22L30 22L30 21L28 21L28 20L27 20L27 19L26 19L26 18L25 18L25 17L26 17L26 16L23 16L23 17L22 17L22 16L21 16L21 18L22 18L22 19L24 19L24 18L25 18L25 19L26 19L26 20L24 20L24 21L23 21L23 20L21 20L21 19L20 19L20 15L21 15L21 14L22 14L22 15L23 15L23 14L24 14L24 15L25 15L25 12L19 12L19 13L20 13L20 14L18 14L18 13L16 13L16 14L15 14L15 12L16 12L16 10L15 10L15 9L17 9L17 8L16 8L16 6L17 6L17 7L18 7L18 4ZM14 6L14 7L15 7L15 6ZM30 8L30 10L29 10L29 11L30 11L30 10L32 10L32 11L33 11L33 10L32 10L32 8ZM9 9L9 10L10 10L10 9ZM27 10L27 11L28 11L28 10ZM32 12L32 13L33 13L33 12ZM22 13L22 14L23 14L23 13ZM16 14L16 15L13 15L13 16L17 16L17 17L15 17L15 18L17 18L17 17L18 17L18 18L19 18L19 15L18 15L18 14ZM8 16L8 18L9 18L9 16ZM10 16L10 17L11 17L11 16ZM0 17L0 18L1 18L1 17ZM23 17L23 18L24 18L24 17ZM30 17L30 18L31 18L31 17ZM29 19L29 20L31 20L31 19ZM6 20L6 21L7 21L7 20ZM20 20L20 21L21 21L21 20ZM10 21L10 22L12 22L12 21ZM26 21L26 22L27 22L27 21ZM14 23L14 24L15 24L15 23ZM9 25L9 26L10 26L10 27L11 27L11 28L12 28L12 29L10 29L10 30L11 30L11 31L12 31L12 32L13 32L13 30L14 30L14 32L15 32L15 31L16 31L16 32L17 32L17 30L15 30L15 29L16 29L16 28L17 28L17 27L18 27L18 26L17 26L17 27L16 27L16 28L15 28L15 29L13 29L13 28L12 28L12 26L11 26L11 25ZM25 25L25 28L28 28L28 25ZM26 26L26 27L27 27L27 26ZM29 26L29 29L28 29L28 30L29 30L29 29L30 29L30 28L31 28L31 27L30 27L30 26ZM29 32L29 33L32 33L32 32ZM0 0L0 7L7 7L7 0ZM1 1L1 6L6 6L6 1ZM2 2L2 5L5 5L5 2ZM26 0L26 7L33 7L33 0ZM27 1L27 6L32 6L32 1ZM28 2L28 5L31 5L31 2ZM0 26L0 33L7 33L7 26ZM1 27L1 32L6 32L6 27ZM2 28L2 31L5 31L5 28Z" fill="#000000"/></g></g></svg>
