<?xml version="1.0" encoding="UTF-8"?>
<svg xmlns="http://www.w3.org/2000/svg" version="1.1" width="300" height="300" viewBox="0 0 300 300"><rect x="0" y="0" width="300" height="300" fill="#ffffff"/><g transform="scale(8.108)"><g transform="translate(2,2)"><path fill-rule="evenodd" d="M10 0L10 1L8 1L8 3L9 3L9 4L8 4L8 8L6 8L6 9L4 9L4 8L3 8L3 9L2 9L2 8L0 8L0 10L2 10L2 11L0 11L0 12L2 12L2 13L0 13L0 14L2 14L2 15L4 15L4 14L3 14L3 13L4 13L4 11L5 11L5 10L6 10L6 11L7 11L7 10L10 10L10 9L8 9L8 8L9 8L9 5L10 5L10 8L11 8L11 11L9 11L9 12L5 12L5 13L9 13L9 14L8 14L8 15L7 15L7 14L6 14L6 15L5 15L5 16L4 16L4 19L3 19L3 16L1 16L1 15L0 15L0 17L2 17L2 20L3 20L3 22L0 22L0 23L1 23L1 24L0 24L0 25L1 25L1 24L2 24L2 23L4 23L4 24L5 24L5 25L7 25L7 24L6 24L6 23L8 23L8 27L9 27L9 29L8 29L8 30L9 30L9 31L8 31L8 33L10 33L10 32L11 32L11 33L13 33L13 32L14 32L14 33L18 33L18 32L20 32L20 33L26 33L26 32L25 32L25 31L26 31L26 30L28 30L28 31L27 31L27 33L28 33L28 31L30 31L30 30L31 30L31 31L33 31L33 28L32 28L32 26L31 26L31 24L32 24L32 25L33 25L33 24L32 24L32 23L33 23L33 22L32 22L32 21L31 21L31 20L32 20L32 19L33 19L33 17L31 17L31 16L33 16L33 15L32 15L32 14L31 14L31 13L30 13L30 12L28 12L28 14L27 14L27 15L29 15L29 13L30 13L30 15L31 15L31 16L29 16L29 19L28 19L28 18L27 18L27 17L28 17L28 16L26 16L26 13L27 13L27 12L26 12L26 11L25 11L25 10L26 10L26 9L29 9L29 8L26 8L26 9L25 9L25 10L24 10L24 11L23 11L23 10L22 10L22 11L21 11L21 10L20 10L20 7L21 7L21 8L23 8L23 9L24 9L24 8L25 8L25 2L24 2L24 1L25 1L25 0L23 0L23 1L22 1L22 0L21 0L21 2L23 2L23 3L24 3L24 4L23 4L23 5L24 5L24 8L23 8L23 6L22 6L22 7L21 7L21 5L22 5L22 3L20 3L20 2L19 2L19 0L18 0L18 1L17 1L17 3L16 3L16 4L15 4L15 2L16 2L16 1L15 1L15 0L14 0L14 5L13 5L13 3L12 3L12 7L11 7L11 4L10 4L10 3L9 3L9 2L11 2L11 0ZM18 2L18 3L19 3L19 2ZM16 4L16 6L15 6L15 5L14 5L14 6L13 6L13 7L12 7L12 8L15 8L15 9L13 9L13 10L15 10L15 11L14 11L14 13L13 13L13 12L12 12L12 16L11 16L11 18L12 18L12 16L13 16L13 17L14 17L14 18L15 18L15 19L20 19L20 17L21 17L21 18L22 18L22 19L24 19L24 18L25 18L25 19L26 19L26 20L24 20L24 21L23 21L23 20L20 20L20 21L17 21L17 22L15 22L15 21L16 21L16 20L14 20L14 19L13 19L13 20L12 20L12 19L10 19L10 18L9 18L9 17L10 17L10 14L11 14L11 13L10 13L10 12L9 12L9 13L10 13L10 14L9 14L9 17L8 17L8 19L6 19L6 18L7 18L7 17L6 17L6 16L7 16L7 15L6 15L6 16L5 16L5 17L6 17L6 18L5 18L5 19L6 19L6 20L7 20L7 21L5 21L5 20L4 20L4 22L5 22L5 23L6 23L6 22L7 22L7 21L8 21L8 22L9 22L9 21L12 21L12 22L10 22L10 24L11 24L11 25L12 25L12 24L13 24L13 27L16 27L16 28L15 28L15 29L13 29L13 28L12 28L12 26L11 26L11 28L12 28L12 29L9 29L9 30L10 30L10 31L12 31L12 32L13 32L13 30L14 30L14 32L15 32L15 31L16 31L16 32L17 32L17 30L15 30L15 29L16 29L16 28L17 28L17 29L18 29L18 31L20 31L20 32L21 32L21 31L22 31L22 32L24 32L24 28L22 28L22 29L21 29L21 26L22 26L22 27L24 27L24 24L26 24L26 23L28 23L28 22L29 22L29 23L30 23L30 24L29 24L29 25L30 25L30 24L31 24L31 23L32 23L32 22L30 22L30 21L28 21L28 20L27 20L27 19L26 19L26 18L25 18L25 17L26 17L26 16L23 16L23 17L22 17L22 16L21 16L21 14L22 14L22 15L23 15L23 14L24 14L24 15L25 15L25 12L19 12L19 13L20 13L20 14L19 14L19 15L20 15L20 17L19 17L19 18L18 18L18 17L17 17L17 16L13 16L13 15L16 15L16 14L17 14L17 13L16 13L16 14L15 14L15 12L16 12L16 10L15 10L15 9L17 9L17 12L18 12L18 11L19 11L19 10L18 10L18 8L19 8L19 7L20 7L20 6L19 6L19 7L18 7L18 6L17 6L17 5L18 5L18 4ZM20 4L20 5L21 5L21 4ZM14 6L14 7L15 7L15 6ZM16 6L16 8L18 8L18 7L17 7L17 6ZM30 8L30 10L29 10L29 11L30 11L30 10L32 10L32 11L33 11L33 10L32 10L32 8ZM6 9L6 10L7 10L7 9ZM27 10L27 11L28 11L28 10ZM2 11L2 12L3 12L3 11ZM32 12L32 13L33 13L33 12ZM22 13L22 14L23 14L23 13ZM15 17L15 18L17 18L17 17ZM23 17L23 18L24 18L24 17ZM30 17L30 18L31 18L31 17ZM0 19L0 21L1 21L1 19ZM8 19L8 21L9 21L9 19ZM29 19L29 20L31 20L31 19ZM21 21L21 22L17 22L17 23L19 23L19 24L22 24L22 23L23 23L23 24L24 24L24 23L23 23L23 21ZM26 21L26 22L27 22L27 21ZM21 22L21 23L22 23L22 22ZM14 23L14 24L15 24L15 23ZM9 25L9 27L10 27L10 25ZM15 25L15 26L16 26L16 27L17 27L17 28L19 28L19 29L20 29L20 30L21 30L21 29L20 29L20 27L19 27L19 26L20 26L20 25L19 25L19 26L18 26L18 25L17 25L17 26L16 26L16 25ZM22 25L22 26L23 26L23 25ZM25 25L25 28L28 28L28 25ZM17 26L17 27L18 27L18 26ZM26 26L26 27L27 27L27 26ZM29 26L29 29L28 29L28 30L29 30L29 29L30 29L30 28L31 28L31 27L30 27L30 26ZM22 29L22 30L23 30L23 29ZM29 32L29 33L32 33L32 32ZM0 0L0 7L7 7L7 0ZM1 1L1 6L6 6L6 1ZM2 2L2 5L5 5L5 2ZM26 0L26 7L33 7L33 0ZM27 1L27 6L32 6L32 1ZM28 2L28 5L31 5L31 2ZM0 26L0 33L7 33L7 26ZM1 27L1 32L6 32L6 27ZM2 28L2 31L5 31L5 28Z" fill="#000000"/></g></g></svg>
