<?xml version="1.0" encoding="UTF-8"?>
<svg xmlns="http://www.w3.org/2000/svg" version="1.1" width="300" height="300" viewBox="0 0 300 300"><rect x="0" y="0" width="300" height="300" fill="#ffffff"/><g transform="scale(8.108)"><g transform="translate(2,2)"><path fill-rule="evenodd" d="M9 0L9 1L8 1L8 3L9 3L9 4L8 4L8 8L6 8L6 9L8 9L8 8L10 8L10 10L8 10L8 11L7 11L7 10L5 10L5 9L4 9L4 8L3 8L3 10L2 10L2 8L0 8L0 10L2 10L2 11L1 11L1 12L0 12L0 16L1 16L1 17L0 17L0 18L2 18L2 20L3 20L3 19L4 19L4 18L5 18L5 19L7 19L7 18L6 18L6 17L9 17L9 15L8 15L8 13L7 13L7 12L8 12L8 11L11 11L11 10L12 10L12 9L11 9L11 8L10 8L10 7L11 7L11 6L12 6L12 8L13 8L13 9L15 9L15 10L17 10L17 11L14 11L14 10L13 10L13 12L12 12L12 13L10 13L10 14L12 14L12 16L10 16L10 18L9 18L9 22L8 22L8 23L7 23L7 22L6 22L6 21L7 21L7 20L6 20L6 21L5 21L5 20L4 20L4 21L2 21L2 22L0 22L0 23L1 23L1 24L0 24L0 25L1 25L1 24L2 24L2 25L3 25L3 24L5 24L5 25L7 25L7 24L11 24L11 25L8 25L8 27L9 27L9 26L10 26L10 27L11 27L11 28L12 28L12 30L11 30L11 29L10 29L10 28L9 28L9 29L8 29L8 30L9 30L9 31L8 31L8 33L9 33L9 32L10 32L10 33L11 33L11 32L10 32L10 30L11 30L11 31L12 31L12 32L13 32L13 30L14 30L14 32L15 32L15 33L18 33L18 32L19 32L19 30L17 30L17 29L16 29L16 28L18 28L18 27L19 27L19 29L20 29L20 30L21 30L21 29L22 29L22 30L23 30L23 29L22 29L22 28L24 28L24 32L22 32L22 31L21 31L21 32L20 32L20 33L26 33L26 32L25 32L25 31L26 31L26 30L28 30L28 31L27 31L27 33L28 33L28 31L30 31L30 30L31 30L31 31L33 31L33 28L30 28L30 29L29 29L29 26L30 26L30 27L32 27L32 26L31 26L31 24L32 24L32 25L33 25L33 24L32 24L32 23L33 23L33 22L32 22L32 21L31 21L31 20L32 20L32 19L33 19L33 17L31 17L31 16L33 16L33 15L32 15L32 14L31 14L31 13L30 13L30 12L28 12L28 14L27 14L27 15L29 15L29 13L30 13L30 15L31 15L31 16L29 16L29 19L28 19L28 18L27 18L27 17L28 17L28 16L26 16L26 13L27 13L27 12L26 12L26 11L25 11L25 10L26 10L26 9L29 9L29 8L26 8L26 9L25 9L25 10L24 10L24 11L23 11L23 10L22 10L22 11L21 11L21 10L19 10L19 12L17 12L17 11L18 11L18 8L19 8L19 6L20 6L20 7L21 7L21 8L20 8L20 9L21 9L21 8L23 8L23 9L24 9L24 8L25 8L25 2L24 2L24 1L25 1L25 0L23 0L23 1L22 1L22 0L21 0L21 2L23 2L23 3L24 3L24 4L23 4L23 5L24 5L24 8L23 8L23 6L22 6L22 7L21 7L21 5L22 5L22 3L21 3L21 4L19 4L19 3L20 3L20 2L17 2L17 0L15 0L15 1L14 1L14 0L12 0L12 1L11 1L11 2L9 2L9 1L10 1L10 0ZM13 1L13 3L12 3L12 4L9 4L9 5L10 5L10 6L9 6L9 7L10 7L10 6L11 6L11 5L12 5L12 6L13 6L13 8L14 8L14 6L15 6L15 8L17 8L17 7L18 7L18 4L17 4L17 7L16 7L16 6L15 6L15 5L16 5L16 4L15 4L15 5L14 5L14 6L13 6L13 3L14 3L14 1ZM30 8L30 10L29 10L29 11L30 11L30 10L32 10L32 11L33 11L33 10L32 10L32 8ZM3 10L3 14L4 14L4 15L2 15L2 16L3 16L3 17L4 17L4 16L5 16L5 15L6 15L6 16L8 16L8 15L6 15L6 14L7 14L7 13L6 13L6 12L7 12L7 11L6 11L6 12L5 12L5 11L4 11L4 10ZM27 10L27 11L28 11L28 10ZM1 12L1 14L2 14L2 12ZM4 12L4 14L6 14L6 13L5 13L5 12ZM14 12L14 14L13 14L13 15L16 15L16 16L12 16L12 17L11 17L11 18L10 18L10 23L11 23L11 19L12 19L12 20L14 20L14 18L13 18L13 17L17 17L17 19L18 19L18 17L17 17L17 14L18 14L18 15L19 15L19 22L21 22L21 23L22 23L22 24L19 24L19 25L18 25L18 23L17 23L17 22L15 22L15 23L14 23L14 22L13 22L13 23L14 23L14 24L12 24L12 28L14 28L14 29L15 29L15 27L18 27L18 26L19 26L19 27L20 27L20 29L21 29L21 26L22 26L22 27L24 27L24 24L26 24L26 23L28 23L28 22L29 22L29 23L30 23L30 24L29 24L29 25L30 25L30 24L31 24L31 23L32 23L32 22L30 22L30 21L28 21L28 20L27 20L27 19L26 19L26 18L25 18L25 17L26 17L26 16L23 16L23 17L22 17L22 16L21 16L21 18L22 18L22 19L24 19L24 18L25 18L25 19L26 19L26 20L24 20L24 21L23 21L23 20L21 20L21 19L20 19L20 15L21 15L21 14L22 14L22 15L23 15L23 14L24 14L24 15L25 15L25 12L19 12L19 13L20 13L20 14L18 14L18 13L16 13L16 12ZM32 12L32 13L33 13L33 12ZM15 13L15 14L16 14L16 13ZM22 13L22 14L23 14L23 13ZM23 17L23 18L24 18L24 17ZM30 17L30 18L31 18L31 17ZM15 18L15 21L18 21L18 20L16 20L16 18ZM0 19L0 21L1 21L1 19ZM29 19L29 20L31 20L31 19ZM20 20L20 21L21 21L21 22L22 22L22 23L23 23L23 24L24 24L24 23L23 23L23 21L21 21L21 20ZM26 21L26 22L27 22L27 21ZM2 22L2 24L3 24L3 22ZM4 22L4 23L5 23L5 24L7 24L7 23L6 23L6 22ZM15 23L15 24L14 24L14 25L13 25L13 27L15 27L15 26L16 26L16 25L15 25L15 24L16 24L16 23ZM14 25L14 26L15 26L15 25ZM19 25L19 26L20 26L20 25ZM22 25L22 26L23 26L23 25ZM25 25L25 28L28 28L28 25ZM26 26L26 27L27 27L27 26ZM9 29L9 30L10 30L10 29ZM28 29L28 30L29 30L29 29ZM15 30L15 32L17 32L17 30ZM29 32L29 33L32 33L32 32ZM0 0L0 7L7 7L7 0ZM1 1L1 6L6 6L6 1ZM2 2L2 5L5 5L5 2ZM26 0L26 7L33 7L33 0ZM27 1L27 6L32 6L32 1ZM28 2L28 5L31 5L31 2ZM0 26L0 33L7 33L7 26ZM1 27L1 32L6 32L6 27ZM2 28L2 31L5 31L5 28Z" fill="#000000"/></g></g></svg>
