<?xml version="1.0" encoding="UTF-8"?>
<svg xmlns="http://www.w3.org/2000/svg" version="1.1" width="300" height="300" viewBox="0 0 300 300"><rect x="0" y="0" width="300" height="300" fill="#ffffff"/><g transform="scale(8.108)"><g transform="translate(2,2)"><path fill-rule="evenodd" d="M9 0L9 1L8 1L8 3L9 3L9 4L8 4L8 8L6 8L6 9L7 9L7 10L6 10L6 11L5 11L5 9L4 9L4 8L3 8L3 9L2 9L2 8L0 8L0 9L2 9L2 11L1 11L1 12L0 12L0 13L3 13L3 17L1 17L1 18L2 18L2 21L1 21L1 20L0 20L0 21L1 21L1 22L0 22L0 23L1 23L1 24L0 24L0 25L1 25L1 24L3 24L3 25L5 25L5 24L3 24L3 23L7 23L7 22L6 22L6 21L7 21L7 20L8 20L8 19L9 19L9 17L7 17L7 16L6 16L6 15L8 15L8 13L9 13L9 14L10 14L10 16L11 16L11 17L10 17L10 18L11 18L11 17L12 17L12 16L13 16L13 17L14 17L14 18L13 18L13 20L12 20L12 19L10 19L10 20L9 20L9 21L10 21L10 22L8 22L8 27L10 27L10 26L11 26L11 28L12 28L12 30L11 30L11 31L12 31L12 32L13 32L13 30L14 30L14 32L17 32L17 33L18 33L18 32L20 32L20 33L26 33L26 32L25 32L25 31L26 31L26 30L28 30L28 31L27 31L27 33L28 33L28 31L30 31L30 30L31 30L31 28L30 28L30 29L29 29L29 26L30 26L30 27L32 27L32 28L33 28L33 27L32 27L32 26L31 26L31 24L32 24L32 25L33 25L33 24L32 24L32 23L33 23L33 22L32 22L32 21L31 21L31 20L32 20L32 19L33 19L33 17L31 17L31 16L33 16L33 15L32 15L32 14L31 14L31 13L30 13L30 12L28 12L28 14L27 14L27 15L29 15L29 13L30 13L30 15L31 15L31 16L29 16L29 19L28 19L28 18L27 18L27 17L28 17L28 16L26 16L26 13L27 13L27 12L26 12L26 11L25 11L25 10L26 10L26 9L29 9L29 8L26 8L26 9L25 9L25 10L24 10L24 11L23 11L23 10L22 10L22 11L21 11L21 8L23 8L23 9L24 9L24 8L25 8L25 2L24 2L24 1L25 1L25 0L23 0L23 1L22 1L22 0L21 0L21 1L20 1L20 3L19 3L19 0L18 0L18 2L17 2L17 3L19 3L19 5L18 5L18 4L16 4L16 3L14 3L14 5L13 5L13 6L12 6L12 5L11 5L11 6L10 6L10 5L9 5L9 4L12 4L12 3L13 3L13 1L14 1L14 2L16 2L16 0L12 0L12 1L11 1L11 2L9 2L9 1L10 1L10 0ZM21 2L21 3L20 3L20 5L21 5L21 7L20 7L20 6L19 6L19 7L20 7L20 8L19 8L19 9L20 9L20 8L21 8L21 7L22 7L22 6L23 6L23 8L24 8L24 5L23 5L23 4L24 4L24 3L23 3L23 2ZM21 3L21 5L22 5L22 3ZM15 4L15 5L16 5L16 4ZM17 5L17 7L16 7L16 6L15 6L15 7L16 7L16 9L14 9L14 10L15 10L15 11L14 11L14 13L13 13L13 14L14 14L14 15L15 15L15 16L16 16L16 17L18 17L18 18L19 18L19 19L18 19L18 22L21 22L21 23L19 23L19 24L18 24L18 23L16 23L16 22L15 22L15 21L16 21L16 20L17 20L17 19L16 19L16 18L14 18L14 20L13 20L13 21L14 21L14 22L15 22L15 23L14 23L14 24L12 24L12 28L14 28L14 29L16 29L16 28L17 28L17 29L18 29L18 30L17 30L17 31L20 31L20 32L21 32L21 31L22 31L22 32L24 32L24 28L22 28L22 29L21 29L21 26L22 26L22 27L24 27L24 24L26 24L26 23L28 23L28 22L29 22L29 23L30 23L30 24L29 24L29 25L30 25L30 24L31 24L31 23L32 23L32 22L30 22L30 21L28 21L28 20L27 20L27 19L26 19L26 18L25 18L25 17L26 17L26 16L23 16L23 17L22 17L22 16L21 16L21 14L22 14L22 15L23 15L23 14L24 14L24 15L25 15L25 12L21 12L21 13L19 13L19 14L17 14L17 12L18 12L18 10L17 10L17 9L18 9L18 8L17 8L17 7L18 7L18 5ZM9 6L9 7L10 7L10 8L8 8L8 10L7 10L7 11L6 11L6 12L7 12L7 11L8 11L8 10L10 10L10 8L11 8L11 9L12 9L12 10L11 10L11 11L9 11L9 13L12 13L12 12L13 12L13 8L14 8L14 6L13 6L13 8L12 8L12 6L11 6L11 7L10 7L10 6ZM30 8L30 10L29 10L29 11L30 11L30 10L32 10L32 11L33 11L33 10L32 10L32 8ZM3 9L3 11L2 11L2 12L4 12L4 9ZM27 10L27 11L28 11L28 10ZM19 11L19 12L20 12L20 11ZM32 12L32 13L33 13L33 12ZM6 13L6 14L4 14L4 15L6 15L6 14L7 14L7 13ZM14 13L14 14L16 14L16 13ZM22 13L22 14L23 14L23 13ZM0 14L0 15L2 15L2 14ZM11 14L11 16L12 16L12 14ZM16 15L16 16L18 16L18 17L20 17L20 19L21 19L21 20L20 20L20 21L21 21L21 22L22 22L22 23L21 23L21 24L19 24L19 26L20 26L20 25L21 25L21 24L22 24L22 23L23 23L23 24L24 24L24 23L23 23L23 21L24 21L24 20L26 20L26 19L25 19L25 18L24 18L24 17L23 17L23 18L24 18L24 19L22 19L22 18L21 18L21 17L20 17L20 15L19 15L19 16L18 16L18 15ZM6 17L6 18L5 18L5 19L6 19L6 20L7 20L7 19L6 19L6 18L7 18L7 17ZM30 17L30 18L31 18L31 17ZM3 18L3 22L2 22L2 23L3 23L3 22L5 22L5 21L4 21L4 18ZM15 19L15 20L14 20L14 21L15 21L15 20L16 20L16 19ZM29 19L29 20L31 20L31 19ZM10 20L10 21L11 21L11 20ZM21 20L21 21L23 21L23 20ZM26 21L26 22L27 22L27 21ZM10 22L10 23L9 23L9 26L10 26L10 25L11 25L11 22ZM15 23L15 24L14 24L14 25L13 25L13 27L15 27L15 26L16 26L16 27L17 27L17 28L19 28L19 29L20 29L20 31L21 31L21 29L20 29L20 27L17 27L17 26L16 26L16 25L17 25L17 24L16 24L16 23ZM6 24L6 25L7 25L7 24ZM15 24L15 25L16 25L16 24ZM22 25L22 26L23 26L23 25ZM25 25L25 28L28 28L28 25ZM26 26L26 27L27 27L27 26ZM9 28L9 29L8 29L8 30L9 30L9 29L10 29L10 28ZM22 29L22 30L23 30L23 29ZM28 29L28 30L29 30L29 29ZM15 30L15 31L16 31L16 30ZM32 30L32 31L33 31L33 30ZM8 31L8 33L9 33L9 31ZM10 32L10 33L11 33L11 32ZM29 32L29 33L32 33L32 32ZM0 0L0 7L7 7L7 0ZM1 1L1 6L6 6L6 1ZM2 2L2 5L5 5L5 2ZM26 0L26 7L33 7L33 0ZM27 1L27 6L32 6L32 1ZM28 2L28 5L31 5L31 2ZM0 26L0 33L7 33L7 26ZM1 27L1 32L6 32L6 27ZM2 28L2 31L5 31L5 28Z" fill="#000000"/></g></g></svg>
