<?xml version="1.0" encoding="UTF-8"?>
<svg xmlns="http://www.w3.org/2000/svg" version="1.1" width="300" height="300" viewBox="0 0 300 300"><rect x="0" y="0" width="300" height="300" fill="#ffffff"/><g transform="scale(8.108)"><g transform="translate(2,2)"><path fill-rule="evenodd" d="M8 0L8 4L10 4L10 3L11 3L11 4L12 4L12 2L11 2L11 0ZM12 0L12 1L13 1L13 2L14 2L14 4L13 4L13 5L11 5L11 6L10 6L10 7L9 7L9 5L8 5L8 7L9 7L9 8L10 8L10 7L11 7L11 6L12 6L12 8L11 8L11 9L9 9L9 10L8 10L8 11L7 11L7 10L6 10L6 11L5 11L5 13L4 13L4 12L2 12L2 11L3 11L3 10L1 10L1 11L0 11L0 15L1 15L1 17L0 17L0 22L1 22L1 18L3 18L3 20L4 20L4 18L3 18L3 17L2 17L2 15L3 15L3 14L2 14L2 13L4 13L4 16L5 16L5 15L7 15L7 14L5 14L5 13L8 13L8 14L9 14L9 12L8 12L8 11L9 11L9 10L11 10L11 11L10 11L10 13L11 13L11 12L12 12L12 13L13 13L13 12L12 12L12 11L13 11L13 9L12 9L12 8L13 8L13 6L14 6L14 8L15 8L15 9L14 9L14 11L15 11L15 12L16 12L16 11L17 11L17 13L16 13L16 14L15 14L15 13L14 13L14 14L15 14L15 15L14 15L14 16L17 16L17 17L16 17L16 18L15 18L15 17L12 17L12 16L13 16L13 15L12 15L12 16L11 16L11 14L10 14L10 16L9 16L9 17L8 17L8 16L6 16L6 17L8 17L8 18L5 18L5 19L7 19L7 20L5 20L5 22L4 22L4 23L3 23L3 21L2 21L2 24L0 24L0 25L2 25L2 24L3 24L3 25L5 25L5 24L6 24L6 25L8 25L8 26L9 26L9 25L8 25L8 24L9 24L9 23L10 23L10 22L11 22L11 21L8 21L8 19L9 19L9 20L12 20L12 21L13 21L13 23L12 23L12 24L11 24L11 25L10 25L10 27L8 27L8 29L10 29L10 30L9 30L9 31L8 31L8 33L9 33L9 31L10 31L10 33L12 33L12 32L13 32L13 33L16 33L16 32L15 32L15 31L16 31L16 30L17 30L17 29L16 29L16 26L19 26L19 25L20 25L20 26L22 26L22 25L23 25L23 26L24 26L24 27L23 27L23 28L24 28L24 29L25 29L25 31L24 31L24 30L23 30L23 29L22 29L22 27L21 27L21 29L20 29L20 28L19 28L19 29L18 29L18 30L19 30L19 29L20 29L20 31L21 31L21 33L22 33L22 30L23 30L23 31L24 31L24 33L25 33L25 31L27 31L27 32L26 32L26 33L29 33L29 32L28 32L28 31L29 31L29 30L30 30L30 31L32 31L32 30L33 30L33 28L32 28L32 26L33 26L33 23L32 23L32 22L33 22L33 20L32 20L32 18L33 18L33 17L31 17L31 16L29 16L29 14L30 14L30 11L31 11L31 15L32 15L32 16L33 16L33 15L32 15L32 14L33 14L33 11L32 11L32 10L33 10L33 8L29 8L29 10L28 10L28 8L27 8L27 9L23 9L23 6L22 6L22 4L23 4L23 5L25 5L25 3L24 3L24 2L25 2L25 0L21 0L21 1L20 1L20 0L19 0L19 1L17 1L17 2L16 2L16 3L15 3L15 2L14 2L14 1L13 1L13 0ZM15 0L15 1L16 1L16 0ZM21 1L21 2L20 2L20 4L21 4L21 2L22 2L22 3L23 3L23 4L24 4L24 3L23 3L23 2L24 2L24 1ZM9 2L9 3L10 3L10 2ZM18 2L18 3L19 3L19 2ZM16 3L16 4L15 4L15 5L14 5L14 6L15 6L15 8L16 8L16 9L15 9L15 10L16 10L16 9L17 9L17 11L18 11L18 12L20 12L20 13L18 13L18 14L19 14L19 15L22 15L22 16L21 16L21 17L22 17L22 18L20 18L20 16L19 16L19 17L17 17L17 18L18 18L18 19L19 19L19 20L20 20L20 21L17 21L17 23L18 23L18 22L19 22L19 24L20 24L20 25L22 25L22 24L21 24L21 22L22 22L22 23L23 23L23 25L24 25L24 24L25 24L25 23L23 23L23 22L22 22L22 20L21 20L21 19L23 19L23 17L26 17L26 16L28 16L28 18L24 18L24 19L26 19L26 20L27 20L27 21L25 21L25 20L23 20L23 21L25 21L25 22L27 22L27 21L28 21L28 24L29 24L29 29L27 29L27 30L29 30L29 29L30 29L30 30L31 30L31 29L30 29L30 28L31 28L31 25L30 25L30 24L32 24L32 23L29 23L29 21L30 21L30 22L31 22L31 21L30 21L30 20L31 20L31 18L29 18L29 16L28 16L28 14L29 14L29 12L28 12L28 10L27 10L27 13L28 13L28 14L26 14L26 11L25 11L25 10L24 10L24 11L23 11L23 9L22 9L22 8L21 8L21 7L22 7L22 6L21 6L21 7L20 7L20 6L19 6L19 5L18 5L18 4L17 4L17 3ZM16 4L16 7L17 7L17 8L19 8L19 9L18 9L18 11L19 11L19 9L20 9L20 10L21 10L21 12L22 12L22 13L20 13L20 14L22 14L22 13L23 13L23 16L22 16L22 17L23 17L23 16L25 16L25 15L26 15L26 14L25 14L25 13L23 13L23 12L22 12L22 9L20 9L20 8L19 8L19 6L18 6L18 7L17 7L17 4ZM24 6L24 8L25 8L25 6ZM0 8L0 9L2 9L2 8ZM4 8L4 10L5 10L5 9L7 9L7 8ZM11 9L11 10L12 10L12 9ZM30 9L30 10L29 10L29 11L30 11L30 10L31 10L31 9ZM6 11L6 12L7 12L7 11ZM24 11L24 12L25 12L25 11ZM16 14L16 15L17 15L17 14ZM10 16L10 17L9 17L9 19L10 19L10 18L12 18L12 17L11 17L11 16ZM13 18L13 19L12 19L12 20L13 20L13 21L14 21L14 23L13 23L13 24L12 24L12 25L11 25L11 26L12 26L12 25L13 25L13 26L14 26L14 25L13 25L13 24L14 24L14 23L15 23L15 22L16 22L16 19L15 19L15 18ZM14 19L14 20L15 20L15 19ZM27 19L27 20L29 20L29 19ZM6 21L6 22L5 22L5 23L6 23L6 24L7 24L7 23L8 23L8 22L7 22L7 21ZM20 21L20 22L21 22L21 21ZM6 22L6 23L7 23L7 22ZM26 23L26 24L27 24L27 23ZM15 24L15 26L16 26L16 24ZM17 24L17 25L18 25L18 24ZM25 25L25 28L28 28L28 25ZM26 26L26 27L27 27L27 26ZM12 27L12 28L11 28L11 32L12 32L12 31L13 31L13 32L14 32L14 31L15 31L15 30L16 30L16 29L15 29L15 27L14 27L14 29L15 29L15 30L13 30L13 29L12 29L12 28L13 28L13 27ZM17 27L17 28L18 28L18 27ZM17 31L17 32L19 32L19 33L20 33L20 32L19 32L19 31ZM30 32L30 33L31 33L31 32ZM32 32L32 33L33 33L33 32ZM0 0L0 7L7 7L7 0ZM1 1L1 6L6 6L6 1ZM2 2L2 5L5 5L5 2ZM26 0L26 7L33 7L33 0ZM27 1L27 6L32 6L32 1ZM28 2L28 5L31 5L31 2ZM0 26L0 33L7 33L7 26ZM1 27L1 32L6 32L6 27ZM2 28L2 31L5 31L5 28Z" fill="#000000"/></g></g></svg>
