<?xml version="1.0" encoding="UTF-8"?>
<svg xmlns="http://www.w3.org/2000/svg" version="1.1" width="300" height="300" viewBox="0 0 300 300"><rect x="0" y="0" width="300" height="300" fill="#ffffff"/><g transform="scale(8.108)"><g transform="translate(2,2)"><path fill-rule="evenodd" d="M8 0L8 4L9 4L9 5L8 5L8 7L9 7L9 6L10 6L10 9L11 9L11 8L12 8L12 9L13 9L13 8L12 8L12 7L13 7L13 6L14 6L14 7L15 7L15 6L14 6L14 5L16 5L16 4L15 4L15 3L16 3L16 2L17 2L17 4L18 4L18 5L19 5L19 6L18 6L18 7L17 7L17 6L16 6L16 10L15 10L15 9L14 9L14 10L15 10L15 11L14 11L14 12L15 12L15 13L12 13L12 12L13 12L13 11L12 11L12 12L11 12L11 13L8 13L8 14L6 14L6 13L7 13L7 12L8 12L8 11L9 11L9 12L10 12L10 11L11 11L11 10L9 10L9 9L7 9L7 8L4 8L4 10L3 10L3 9L2 9L2 8L0 8L0 9L2 9L2 10L1 10L1 11L0 11L0 12L1 12L1 13L0 13L0 14L2 14L2 15L4 15L4 16L1 16L1 15L0 15L0 16L1 16L1 17L5 17L5 18L3 18L3 20L2 20L2 19L1 19L1 18L0 18L0 19L1 19L1 20L0 20L0 22L1 22L1 21L2 21L2 23L3 23L3 24L0 24L0 25L4 25L4 24L5 24L5 25L7 25L7 24L8 24L8 26L9 26L9 27L8 27L8 29L9 29L9 28L10 28L10 29L12 29L12 30L11 30L11 31L10 31L10 32L9 32L9 31L8 31L8 33L10 33L10 32L12 32L12 33L14 33L14 31L15 31L15 33L16 33L16 30L18 30L18 31L17 31L17 32L19 32L19 33L20 33L20 32L19 32L19 29L20 29L20 31L21 31L21 33L22 33L22 30L23 30L23 31L24 31L24 33L25 33L25 31L27 31L27 32L26 32L26 33L29 33L29 32L28 32L28 31L29 31L29 30L30 30L30 31L32 31L32 30L33 30L33 28L30 28L30 29L29 29L29 24L28 24L28 21L27 21L27 20L29 20L29 19L27 19L27 20L26 20L26 19L24 19L24 18L28 18L28 16L29 16L29 18L31 18L31 20L30 20L30 21L29 21L29 23L32 23L32 24L30 24L30 25L31 25L31 27L32 27L32 26L33 26L33 23L32 23L32 22L33 22L33 20L32 20L32 18L33 18L33 17L31 17L31 16L29 16L29 14L30 14L30 11L31 11L31 15L32 15L32 16L33 16L33 15L32 15L32 14L33 14L33 11L32 11L32 10L33 10L33 8L29 8L29 10L28 10L28 8L27 8L27 9L23 9L23 6L22 6L22 4L23 4L23 5L25 5L25 3L24 3L24 2L25 2L25 0L21 0L21 1L20 1L20 0L19 0L19 1L17 1L17 0L16 0L16 2L14 2L14 1L15 1L15 0L13 0L13 1L11 1L11 2L12 2L12 5L13 5L13 6L12 6L12 7L11 7L11 3L10 3L10 2L9 2L9 0ZM21 1L21 2L20 2L20 4L21 4L21 2L22 2L22 3L23 3L23 4L24 4L24 3L23 3L23 2L24 2L24 1ZM13 2L13 3L14 3L14 2ZM18 2L18 3L19 3L19 2ZM13 4L13 5L14 5L14 4ZM19 6L19 8L17 8L17 10L16 10L16 11L15 11L15 12L16 12L16 13L15 13L15 14L13 14L13 15L12 15L12 16L10 16L10 15L11 15L11 14L12 14L12 13L11 13L11 14L10 14L10 15L9 15L9 14L8 14L8 15L6 15L6 14L5 14L5 13L6 13L6 12L7 12L7 11L6 11L6 10L7 10L7 9L5 9L5 10L4 10L4 12L5 12L5 13L4 13L4 15L5 15L5 16L8 16L8 18L9 18L9 20L8 20L8 21L9 21L9 23L8 23L8 22L7 22L7 21L5 21L5 22L4 22L4 23L5 23L5 24L7 24L7 23L8 23L8 24L9 24L9 23L10 23L10 24L11 24L11 26L10 26L10 28L12 28L12 29L13 29L13 30L16 30L16 28L15 28L15 29L13 29L13 28L14 28L14 27L15 27L15 26L16 26L16 23L14 23L14 25L15 25L15 26L13 26L13 25L12 25L12 24L13 24L13 23L12 23L12 24L11 24L11 23L10 23L10 21L11 21L11 22L12 22L12 21L13 21L13 22L14 22L14 21L13 21L13 20L14 20L14 19L15 19L15 18L16 18L16 19L18 19L18 20L15 20L15 22L16 22L16 21L18 21L18 20L20 20L20 21L19 21L19 22L17 22L17 23L18 23L18 24L17 24L17 27L19 27L19 28L17 28L17 29L19 29L19 28L20 28L20 29L21 29L21 27L22 27L22 29L23 29L23 30L24 30L24 31L25 31L25 29L24 29L24 28L23 28L23 27L24 27L24 26L23 26L23 25L24 25L24 24L25 24L25 23L23 23L23 22L22 22L22 20L21 20L21 19L23 19L23 17L26 17L26 16L28 16L28 14L29 14L29 12L28 12L28 10L27 10L27 13L28 13L28 14L26 14L26 11L25 11L25 10L24 10L24 11L23 11L23 9L22 9L22 8L21 8L21 7L22 7L22 6L21 6L21 7L20 7L20 6ZM24 6L24 8L25 8L25 6ZM19 8L19 9L18 9L18 11L17 11L17 13L16 13L16 14L15 14L15 15L14 15L14 16L16 16L16 15L17 15L17 17L16 17L16 18L17 18L17 17L19 17L19 16L20 16L20 18L22 18L22 17L23 17L23 16L25 16L25 15L26 15L26 14L25 14L25 13L23 13L23 12L22 12L22 9L20 9L20 8ZM19 9L19 11L18 11L18 12L20 12L20 13L18 13L18 14L19 14L19 15L22 15L22 16L21 16L21 17L22 17L22 16L23 16L23 13L22 13L22 12L21 12L21 10L20 10L20 9ZM30 9L30 10L29 10L29 11L30 11L30 10L31 10L31 9ZM24 11L24 12L25 12L25 11ZM20 13L20 14L22 14L22 13ZM12 16L12 17L13 17L13 19L12 19L12 20L11 20L11 21L12 21L12 20L13 20L13 19L14 19L14 17L13 17L13 16ZM6 17L6 18L7 18L7 17ZM9 17L9 18L11 18L11 17ZM18 18L18 19L19 19L19 18ZM4 19L4 20L5 20L5 19ZM6 19L6 20L7 20L7 19ZM9 20L9 21L10 21L10 20ZM23 20L23 21L25 21L25 22L27 22L27 21L25 21L25 20ZM20 21L20 22L21 22L21 24L22 24L22 25L20 25L20 24L19 24L19 25L18 25L18 26L19 26L19 25L20 25L20 26L22 26L22 25L23 25L23 23L22 23L22 22L21 22L21 21ZM30 21L30 22L31 22L31 21ZM6 22L6 23L7 23L7 22ZM26 23L26 24L27 24L27 23ZM25 25L25 28L28 28L28 25ZM26 26L26 27L27 27L27 26ZM12 27L12 28L13 28L13 27ZM27 29L27 30L29 30L29 29ZM30 29L30 30L31 30L31 29ZM12 31L12 32L13 32L13 31ZM30 32L30 33L31 33L31 32ZM32 32L32 33L33 33L33 32ZM0 0L0 7L7 7L7 0ZM1 1L1 6L6 6L6 1ZM2 2L2 5L5 5L5 2ZM26 0L26 7L33 7L33 0ZM27 1L27 6L32 6L32 1ZM28 2L28 5L31 5L31 2ZM0 26L0 33L7 33L7 26ZM1 27L1 32L6 32L6 27ZM2 28L2 31L5 31L5 28Z" fill="#000000"/></g></g></svg>
