<?xml version="1.0" encoding="UTF-8"?>
<svg xmlns="http://www.w3.org/2000/svg" version="1.1" width="300" height="300" viewBox="0 0 300 300"><rect x="0" y="0" width="300" height="300" fill="#ffffff"/><g transform="scale(8.108)"><g transform="translate(2,2)"><path fill-rule="evenodd" d="M10 0L10 1L8 1L8 3L9 3L9 4L8 4L8 8L6 8L6 9L7 9L7 10L5 10L5 9L4 9L4 8L3 8L3 11L5 11L5 12L4 12L4 13L3 13L3 14L4 14L4 15L3 15L3 16L4 16L4 15L5 15L5 17L7 17L7 16L8 16L8 14L9 14L9 15L10 15L10 14L9 14L9 13L8 13L8 12L10 12L10 13L11 13L11 16L12 16L12 18L11 18L11 17L10 17L10 18L8 18L8 19L7 19L7 18L6 18L6 19L7 19L7 20L6 20L6 21L7 21L7 20L8 20L8 21L9 21L9 20L10 20L10 21L11 21L11 22L12 22L12 21L11 21L11 19L12 19L12 20L13 20L13 24L12 24L12 25L11 25L11 24L10 24L10 23L7 23L7 22L5 22L5 20L4 20L4 19L5 19L5 18L4 18L4 17L2 17L2 16L1 16L1 17L0 17L0 18L3 18L3 20L2 20L2 19L0 19L0 21L2 21L2 22L0 22L0 23L1 23L1 24L0 24L0 25L1 25L1 24L2 24L2 25L3 25L3 24L4 24L4 25L5 25L5 24L6 24L6 25L8 25L8 27L10 27L10 28L9 28L9 29L8 29L8 30L9 30L9 29L10 29L10 31L8 31L8 33L10 33L10 32L11 32L11 33L13 33L13 32L14 32L14 33L15 33L15 32L14 32L14 30L17 30L17 31L16 31L16 33L18 33L18 31L19 31L19 30L18 30L18 29L20 29L20 30L21 30L21 29L22 29L22 30L23 30L23 29L22 29L22 28L24 28L24 32L22 32L22 31L21 31L21 32L20 32L20 33L26 33L26 32L25 32L25 31L26 31L26 30L28 30L28 31L27 31L27 33L28 33L28 31L30 31L30 30L31 30L31 31L33 31L33 27L32 27L32 26L31 26L31 24L32 24L32 25L33 25L33 24L32 24L32 23L33 23L33 22L32 22L32 21L31 21L31 20L32 20L32 19L33 19L33 17L31 17L31 16L33 16L33 15L32 15L32 14L31 14L31 13L30 13L30 12L28 12L28 14L27 14L27 15L29 15L29 13L30 13L30 15L31 15L31 16L29 16L29 19L28 19L28 18L27 18L27 17L28 17L28 16L26 16L26 13L27 13L27 12L26 12L26 11L25 11L25 10L26 10L26 9L29 9L29 8L26 8L26 9L25 9L25 10L24 10L24 11L23 11L23 10L22 10L22 11L21 11L21 10L19 10L19 11L18 11L18 12L19 12L19 14L20 14L20 13L21 13L21 12L25 12L25 15L24 15L24 14L23 14L23 13L22 13L22 14L21 14L21 16L22 16L22 17L23 17L23 18L24 18L24 19L22 19L22 18L21 18L21 17L20 17L20 15L19 15L19 16L18 16L18 15L17 15L17 14L18 14L18 13L17 13L17 12L16 12L16 11L17 11L17 10L18 10L18 7L19 7L19 6L20 6L20 7L21 7L21 8L20 8L20 9L21 9L21 8L23 8L23 9L24 9L24 8L25 8L25 2L24 2L24 1L25 1L25 0L23 0L23 1L22 1L22 0L20 0L20 1L21 1L21 2L23 2L23 3L24 3L24 4L23 4L23 5L24 5L24 8L23 8L23 6L22 6L22 7L21 7L21 5L22 5L22 3L19 3L19 2L17 2L17 4L16 4L16 5L15 5L15 6L14 6L14 5L13 5L13 3L12 3L12 7L11 7L11 4L10 4L10 3L9 3L9 2L11 2L11 0ZM17 0L17 1L19 1L19 0ZM13 1L13 2L14 2L14 1ZM15 1L15 3L16 3L16 1ZM17 4L17 5L16 5L16 6L15 6L15 7L16 7L16 8L15 8L15 9L14 9L14 6L13 6L13 7L12 7L12 8L13 8L13 9L14 9L14 14L13 14L13 12L12 12L12 16L13 16L13 20L14 20L14 17L16 17L16 16L17 16L17 15L16 15L16 14L17 14L17 13L16 13L16 12L15 12L15 11L16 11L16 10L15 10L15 9L16 9L16 8L17 8L17 7L18 7L18 6L19 6L19 5L20 5L20 4ZM9 5L9 8L8 8L8 11L11 11L11 8L10 8L10 5ZM17 5L17 6L16 6L16 7L17 7L17 6L18 6L18 5ZM0 8L0 10L1 10L1 12L0 12L0 13L1 13L1 12L2 12L2 8ZM30 8L30 10L29 10L29 11L30 11L30 10L32 10L32 11L33 11L33 10L32 10L32 8ZM9 9L9 10L10 10L10 9ZM27 10L27 11L28 11L28 10ZM6 11L6 12L5 12L5 13L4 13L4 14L5 14L5 15L6 15L6 16L7 16L7 15L6 15L6 14L7 14L7 13L6 13L6 12L7 12L7 11ZM19 11L19 12L21 12L21 11ZM32 12L32 13L33 13L33 12ZM15 13L15 14L14 14L14 15L13 15L13 16L14 16L14 15L15 15L15 14L16 14L16 13ZM22 14L22 15L23 15L23 14ZM23 16L23 17L24 17L24 18L25 18L25 19L26 19L26 20L24 20L24 21L23 21L23 20L21 20L21 19L20 19L20 17L19 17L19 18L17 18L17 19L19 19L19 22L21 22L21 23L22 23L22 24L19 24L19 25L20 25L20 26L19 26L19 27L18 27L18 28L16 28L16 27L17 27L17 25L16 25L16 26L14 26L14 25L15 25L15 23L16 23L16 22L15 22L15 21L18 21L18 20L15 20L15 21L14 21L14 22L15 22L15 23L14 23L14 25L13 25L13 26L14 26L14 27L15 27L15 28L16 28L16 29L18 29L18 28L19 28L19 27L20 27L20 29L21 29L21 26L22 26L22 27L24 27L24 24L26 24L26 23L28 23L28 22L29 22L29 23L30 23L30 24L29 24L29 25L30 25L30 24L31 24L31 23L32 23L32 22L30 22L30 21L28 21L28 20L27 20L27 19L26 19L26 18L25 18L25 17L26 17L26 16ZM30 17L30 18L31 18L31 17ZM10 18L10 19L11 19L11 18ZM15 18L15 19L16 19L16 18ZM29 19L29 20L31 20L31 19ZM3 20L3 22L4 22L4 24L5 24L5 22L4 22L4 20ZM20 20L20 21L21 21L21 22L22 22L22 23L23 23L23 24L24 24L24 23L23 23L23 21L21 21L21 20ZM26 21L26 22L27 22L27 21ZM17 22L17 24L18 24L18 22ZM2 23L2 24L3 24L3 23ZM6 23L6 24L7 24L7 23ZM8 24L8 25L9 25L9 26L10 26L10 27L11 27L11 28L10 28L10 29L11 29L11 31L12 31L12 32L13 32L13 30L14 30L14 29L13 29L13 28L12 28L12 26L10 26L10 25L9 25L9 24ZM22 25L22 26L23 26L23 25ZM25 25L25 28L28 28L28 25ZM26 26L26 27L27 27L27 26ZM29 26L29 29L28 29L28 30L29 30L29 29L30 29L30 28L31 28L31 27L30 27L30 26ZM11 28L11 29L12 29L12 28ZM29 32L29 33L32 33L32 32ZM0 0L0 7L7 7L7 0ZM1 1L1 6L6 6L6 1ZM2 2L2 5L5 5L5 2ZM26 0L26 7L33 7L33 0ZM27 1L27 6L32 6L32 1ZM28 2L28 5L31 5L31 2ZM0 26L0 33L7 33L7 26ZM1 27L1 32L6 32L6 27ZM2 28L2 31L5 31L5 28Z" fill="#000000"/></g></g></svg>
