<?xml version="1.0" encoding="UTF-8"?>
<svg xmlns="http://www.w3.org/2000/svg" version="1.1" width="300" height="300" viewBox="0 0 300 300"><rect x="0" y="0" width="300" height="300" fill="#ffffff"/><g transform="scale(9.091)"><g transform="translate(2,2)"><path fill-rule="evenodd" d="M10 0L10 1L8 1L8 3L9 3L9 4L8 4L8 8L6 8L6 9L4 9L4 8L3 8L3 9L2 9L2 8L0 8L0 11L1 11L1 13L3 13L3 14L4 14L4 15L3 15L3 17L2 17L2 16L1 16L1 18L0 18L0 19L1 19L1 18L2 18L2 21L3 21L3 19L8 19L8 23L9 23L9 24L10 24L10 25L8 25L8 26L10 26L10 28L9 28L9 27L8 27L8 29L11 29L11 28L12 28L12 29L14 29L14 27L15 27L15 28L16 28L16 29L17 29L17 28L18 28L18 27L17 27L17 26L16 26L16 25L17 25L17 23L18 23L18 24L19 24L19 23L20 23L20 25L22 25L22 29L23 29L23 26L24 26L24 27L25 27L25 26L26 26L26 27L27 27L27 28L25 28L25 29L28 29L28 27L29 27L29 26L28 26L28 27L27 27L27 23L28 23L28 21L29 21L29 20L28 20L28 19L29 19L29 18L28 18L28 17L27 17L27 18L25 18L25 19L24 19L24 17L25 17L25 16L26 16L26 15L29 15L29 13L28 13L28 12L29 12L29 11L28 11L28 8L26 8L26 9L25 9L25 8L22 8L22 9L21 9L21 8L20 8L20 7L21 7L21 3L20 3L20 2L21 2L21 0L19 0L19 1L17 1L17 0L15 0L15 2L16 2L16 3L15 3L15 4L14 4L14 3L13 3L13 4L12 4L12 7L11 7L11 4L10 4L10 3L9 3L9 2L11 2L11 0ZM19 1L19 2L20 2L20 1ZM17 3L17 4L16 4L16 6L15 6L15 7L14 7L14 4L13 4L13 7L12 7L12 9L11 9L11 8L10 8L10 5L9 5L9 8L8 8L8 9L6 9L6 10L7 10L7 11L5 11L5 10L2 10L2 9L1 9L1 10L2 10L2 12L3 12L3 11L5 11L5 12L4 12L4 13L6 13L6 14L7 14L7 15L4 15L4 16L5 16L5 18L8 18L8 17L10 17L10 16L9 16L9 15L8 15L8 14L7 14L7 13L6 13L6 12L7 12L7 11L8 11L8 13L10 13L10 14L13 14L13 15L12 15L12 16L11 16L11 17L12 17L12 18L9 18L9 19L10 19L10 20L11 20L11 19L12 19L12 18L13 18L13 15L14 15L14 14L15 14L15 15L18 15L18 16L17 16L17 17L16 17L16 16L14 16L14 17L15 17L15 18L14 18L14 19L13 19L13 20L12 20L12 21L13 21L13 22L11 22L11 23L10 23L10 21L9 21L9 23L10 23L10 24L11 24L11 25L13 25L13 26L12 26L12 27L14 27L14 25L15 25L15 24L16 24L16 22L18 22L18 23L19 23L19 21L20 21L20 20L22 20L22 19L21 19L21 18L20 18L20 17L21 17L21 16L22 16L22 18L23 18L23 17L24 17L24 15L25 15L25 13L26 13L26 11L27 11L27 9L26 9L26 10L25 10L25 9L22 9L22 10L21 10L21 9L20 9L20 8L19 8L19 10L18 10L18 11L17 11L17 9L18 9L18 8L17 8L17 7L18 7L18 5L20 5L20 4L19 4L19 3ZM16 6L16 7L17 7L17 6ZM19 6L19 7L20 7L20 6ZM14 8L14 9L13 9L13 10L12 10L12 11L13 11L13 12L16 12L16 11L15 11L15 9L17 9L17 8ZM9 9L9 10L8 10L8 11L9 11L9 12L10 12L10 13L11 13L11 11L9 11L9 10L10 10L10 9ZM13 10L13 11L14 11L14 10ZM19 10L19 12L18 12L18 13L19 13L19 14L18 14L18 15L19 15L19 16L21 16L21 15L24 15L24 13L25 13L25 11L24 11L24 13L23 13L23 11L22 11L22 12L21 12L21 11L20 11L20 10ZM19 12L19 13L20 13L20 14L19 14L19 15L20 15L20 14L22 14L22 13L21 13L21 12ZM16 13L16 14L17 14L17 13ZM1 14L1 15L2 15L2 14ZM7 15L7 16L6 16L6 17L8 17L8 15ZM3 17L3 18L4 18L4 17ZM17 17L17 18L18 18L18 17ZM15 19L15 21L14 21L14 20L13 20L13 21L14 21L14 22L13 22L13 24L14 24L14 22L15 22L15 21L16 21L16 19ZM17 19L17 21L18 21L18 20L19 20L19 19ZM23 19L23 20L24 20L24 19ZM26 19L26 21L25 21L25 25L24 25L24 26L25 26L25 25L26 25L26 22L27 22L27 21L28 21L28 20L27 20L27 19ZM0 20L0 21L1 21L1 20ZM6 20L6 21L7 21L7 20ZM21 21L21 24L24 24L24 21ZM22 22L22 23L23 23L23 22ZM11 23L11 24L12 24L12 23ZM28 24L28 25L29 25L29 24ZM15 26L15 27L16 27L16 26ZM19 26L19 27L20 27L20 26ZM20 28L20 29L21 29L21 28ZM0 0L0 7L7 7L7 0ZM1 1L1 6L6 6L6 1ZM2 2L2 5L5 5L5 2ZM22 0L22 7L29 7L29 0ZM23 1L23 6L28 6L28 1ZM24 2L24 5L27 5L27 2ZM0 22L0 29L7 29L7 22ZM1 23L1 28L6 28L6 23ZM2 24L2 27L5 27L5 24Z" fill="#000000"/></g></g></svg>
